<svg version="1.2" xmlns="http://www.w3.org/2000/svg" viewBox="0 0 870 236" width="200" height="54">
	<title>616f176d32c81f82f0660b26_Logo Transparent SVG-svg</title>
	<style>
		.s0 { fill: #000000 } 
	</style>
	<path id="Layer" fill-rule="evenodd" class="s0" d="m51.1 33c2.2 2.5 2 6.3-0.5 8.5-21.2 18.9-34.6 46.4-34.6 77 0 56.9 46.1 103 103 103 56.9 0 103-46.1 103-103 0-30.6-13.4-58.1-34.6-77-2.5-2.2-2.7-6-0.5-8.5 2.2-2.5 6-2.7 8.5-0.5 23.7 21.1 38.6 51.8 38.6 86 0 63.5-51.5 115-115 115-63.5 0-115-51.5-115-115 0-34.2 14.9-64.9 38.6-86 2.5-2.2 6.3-2 8.5 0.5z"/>
	<path id="Layer" class="s0" d="m67.6 142.1l50.5-134.6c0.3-0.9 1.5-0.9 1.8 0l49.9 134.3c0.4 1.1-1 1.9-1.7 0.9l-41.2-58.2c-0.5-0.7-1.6-0.5-1.8 0.4l-4.6 28.9c-0.2 1.2-1.8 1.2-2 0l-4.6-28.9c-0.2-0.9-1.3-1.2-1.8-0.5l-42.8 58.7c-0.7 0.9-2.1 0.1-1.7-1z"/>
	<path id="Layer" fill-rule="evenodd" class="s0" d="m115.3 6.5c1.3-3.5 6.2-3.5 7.4 0l49.9 134.3c1.7 4.4-4.3 7.5-7 3.7l-38.3-54.3-3.8 24.1c-0.8 4.5-7.2 4.5-8 0l-3.8-24.2-40 54.7c-2.7 3.8-8.6 0.6-6.9-3.7l2.8 1m0 0l-2.8-1 50.5-134.6zm7.9-12.7l34.1-46.8c2.1-2.9 6.7-1.8 7.2 1.7l2.7 16.6 2.6-16.5c0.6-3.6 5.2-4.6 7.3-1.7l32.3 45.7-42.7-114.9zm41.6-120.9l1.8-0.7-1.8 0.7q0 0 0 0z"/>
	<path id="Layer" fill-rule="evenodd" class="s0" d="m99 125c2.8 0 5 2.2 5 5v41c0 2.8-2.2 5-5 5-2.8 0-5-2.2-5-5v-41c0-2.8 2.2-5 5-5z"/>
	<path id="Layer" fill-rule="evenodd" class="s0" d="m118 153c2.8 0 5 2.2 5 5v42c0 2.8-2.2 5-5 5-2.8 0-5-2.2-5-5v-42c0-2.8 2.2-5 5-5z"/>
	<path id="Layer" fill-rule="evenodd" class="s0" d="m137 117c2.8 0 5 2.2 5 5v32c0 2.8-2.2 5-5 5-2.8 0-5-2.2-5-5v-32c0-2.8 2.2-5 5-5z"/>
	<path id="Layer" fill-rule="evenodd" class="s0" d="m137 170c2.8 0 5 2.2 5 5v2c0 2.8-2.2 5-5 5-2.8 0-5-2.2-5-5v-2c0-2.8 2.2-5 5-5z"/>
	<path id="Layer" class="s0" d="m359.7 110h-12.6v-55.3l-23.5 55.3h-11l-23.2-55.1v55.1h-12.4v-75.2h17l24.4 57.4 24-57.4h17.3z"/>
	<path id="Layer" fill-rule="evenodd" class="s0" d="m378.6 93.4q-5.4-9.2-5.4-21 0-11.9 5.4-20.9 5.5-9.1 14.1-13.7 8.6-4.5 18.6-4.5 10.1 0 18.7 4.5 8.6 4.6 14.1 13.7 5.5 9 5.5 20.9 0 11.8-5.5 21-5.5 9.1-14.1 13.6-8.6 4.6-18.7 4.6-10 0-18.6-4.6-8.6-4.5-14.1-13.6zm15-41q-7.4 7.1-7.4 20 0 12.8 7.4 20 7.5 7.1 17.7 7.1 10.3 0 17.7-7.1 7.6-7.2 7.6-20 0-12.9-7.6-20-7.4-7.2-17.7-7.2-10.2 0-17.7 7.2z"/>
	<path id="Layer" fill-rule="evenodd" class="s0" d="m489.5 110h-26.5v-75.2h26.6q15.9 0 26.2 10.1 10.4 10.1 10.4 27.7 0 17.5-10.4 27.4-10.4 10-26.3 10zm-13.8-11.7h13.4q10.4 0 17.1-6.5 6.8-6.7 6.8-19.2 0-12.6-6.7-19.3-6.7-6.8-17.1-6.8h-13.5z"/>
	<path id="Layer" class="s0" d="m586 110h-46.5v-75.2h46.5v11.9h-33.8v19.9h30.6v11.6h-30.6v19.9h33.8z"/>
	<path id="Layer" fill-rule="evenodd" class="s0" d="m639.2 110l-15.8-29.7h-9.4v29.7h-12.8v-75.2h28.9q10.6 0 17 6.6 6.5 6.5 6.5 16.2 0 8.1-4.6 13.8-4.5 5.7-12.4 7.6l17 31zm-25.1-40.9h13.6q5.9 0 9.4-3.1 3.6-3.2 3.6-8.4 0-5.3-3.6-8.3-3.5-3.2-9.4-3.2h-13.6z"/>
	<path id="Layer" class="s0" d="m730.2 110h-13.2l-37.1-56.9v56.9h-12.7v-75.2h16.2l34.1 53.4v-53.4h12.7z"/>
	<path id="Layer" fill-rule="evenodd" class="s0" d="m277.9 199.4q-5.4-9.2-5.4-21 0-11.9 5.4-20.9 5.5-9.1 14.1-13.7 8.5-4.5 18.6-4.5 10.1 0 18.7 4.5 8.6 4.6 14.1 13.7 5.5 9 5.5 20.9 0 11.8-5.5 21-5.5 9.1-14.1 13.6-8.6 4.6-18.7 4.6-10.1 0-18.6-4.6-8.6-4.5-14.1-13.6zm15-41q-7.4 7.1-7.4 20 0 12.8 7.4 20 7.4 7.1 17.7 7.1 10.3 0 17.7-7.1 7.5-7.2 7.5-20 0-12.9-7.5-20-7.4-7.2-17.7-7.2-10.3 0-17.7 7.2z"/>
	<path id="Layer" class="s0" d="m409.6 210.3q-7.9 7.3-20.2 7.3-12.3 0-20.1-7.3-7.8-7.3-7.8-20.5v-49h12.6v48.3q0 7.8 4 12.2 4.1 4.2 11.3 4.2 7.4 0 11.4-4.2 4-4.3 4-12.2v-48.3h12.7v49q0 13.2-7.9 20.5z"/>
	<path id="Layer" class="s0" d="m488.8 152.8h-24.5v63.2h-12.7v-63.2h-24.4v-12h61.6z"/>
	<path id="Layer" fill-rule="evenodd" class="s0" d="m499.3 140.8h25.8q10.6 0 16.8 5.7 6.1 5.6 6.1 14.6 0 5.8-3.1 10.2-3 4.2-8 6 6 1.6 9.7 6.5 3.7 4.9 3.8 11.4 0 9.1-6.5 15-6.5 5.8-16.9 5.8h-27.7zm12.6 31.8h11.5q5.5 0 8.7-2.9 3.2-2.8 3.2-7.6 0-4.9-3.3-7.6-3.2-2.9-8.9-2.9h-11.2zm0 32.6h12.9q5.7 0 9.1-2.9 3.5-3 3.5-8 0-4.9-3.3-7.9-3.1-3.1-8.9-3.1h-13.3z"/>
	<path id="Layer" fill-rule="evenodd" class="s0" d="m564.5 199.4q-5.4-9.2-5.4-21 0-11.9 5.4-20.9 5.5-9.1 14.1-13.7 8.6-4.5 18.6-4.5 10.1 0 18.7 4.5 8.6 4.6 14.1 13.7 5.5 9 5.5 20.9 0 11.8-5.5 21-5.5 9.1-14.1 13.6-8.6 4.6-18.7 4.6-10 0-18.6-4.6-8.6-4.5-14.1-13.6zm15-41q-7.4 7.1-7.4 20 0 12.8 7.4 20 7.5 7.1 17.7 7.1 10.3 0 17.7-7.1 7.6-7.2 7.6-20 0-12.9-7.6-20-7.4-7.2-17.7-7.2-10.2 0-17.7 7.2z"/>
	<path id="Layer" class="s0" d="m696.2 210.3q-7.8 7.3-20.1 7.3-12.3 0-20.2-7.3-7.8-7.3-7.8-20.5v-49h12.6v48.3q0 7.8 4 12.2 4.2 4.2 11.4 4.2 7.3 0 11.3-4.2 4-4.3 4-12.2v-48.3h12.8v49q0 13.2-8 20.5z"/>
	<path id="Layer" class="s0" d="m784.4 216h-13.3l-37.1-56.9v56.9h-12.7v-75.2h16.2l34.1 53.4v-53.4h12.8z"/>
	<path id="Layer" fill-rule="evenodd" class="s0" d="m828.9 216h-26.5v-75.2h26.6q15.9 0 26.1 10.1 10.4 10.1 10.4 27.7 0 17.5-10.4 27.4-10.3 10-26.2 10zm-13.8-11.7h13.3q10.4 0 17.1-6.5 6.8-6.7 6.8-19.2 0-12.6-6.7-19.3-6.7-6.8-17.1-6.8h-13.4z"/>
</svg>